
<svg xmlns="http://www.w3.org/2000/svg" xmlns:xlink="http://www.w3.org/1999/xlink" version="1.1" id="Layer_1" x="0px"
     y="0px" viewBox="0 0 512 512" style="enable-background:new 0 0 512 512;" xml:space="preserve" width="512px"
     height="512px">
<path d="M472,236h40v40h-40V236z M472,354h40v-40h-40V354z M40,236H0v40h40V236z M276,0h-40v40h40V0z M393,40h40V0h-40V40z M472,0  L472,0v40h40v0C512,17.909,494.091,0,472,0z M354,0h-40v40h40V0z M119,0H79v40h40V0z M198,0h-40v40h40V0z M472,432h40v-40h-40V432z   M472,198h40v-40h-40V198z M472,120h40V80h-40V120z M40,158H0v40h40V158z M40,80H0v40h40V80z M40,0L40,0C17.909,0,0,17.909,0,40v0  h40V0z M236,512h40v-40h-40V512z M393,512h40v-40h-40V512z M472,512L472,512c22.091,0,40-17.909,40-40h-40V512z M314,512h40v-40h-40  V512z M235,143h135v135h-40v-66.715L192.448,348.836C196.002,356.495,198,365.016,198,374v78c0,33.084-26.916,60-60,60H60  c-33.084,0-60-26.916-60-60v-78c0-33.084,26.916-60,60-60h78c9.516,0,18.516,2.237,26.518,6.197L301.715,183H235V143z M158,374  c0-11.028-8.972-20-20-20H60c-11.028,0-20,8.972-20,20v78c0,11.028,8.972,20,20,20h78c11.028,0,20-8.972,20-20V374z"/>
</svg>
